<?xml version="1.0" encoding="iso-8859-1"?>
<!-- Generator: Adobe Illustrator 17.0.0, SVG Export Plug-In . SVG Version: 6.00 Build 0)  -->
<!DOCTYPE svg PUBLIC "-//W3C//DTD SVG 1.1//EN" "http://www.w3.org/Graphics/SVG/1.1/DTD/svg11.dtd">
<svg version="1.1" id="Capa_1" xmlns="http://www.w3.org/2000/svg" xmlns:xlink="http://www.w3.org/1999/xlink" x="0px" y="0px"
	 width="64px" height="64px" viewBox="0 0 64 64" style="enable-background:new 0 0 64 64;" xml:space="preserve">
<g>
	<path d="M26.437,35.497c-0.172,0.525-0.007,0.693,0.389,0.308c1.132-1.099,1.88-2.966,1.88-5.081c0-3.375-1.9-6.121-4.233-6.121
		c-2.336,0-4.235,2.746-4.235,6.121c0,1.191,0.239,2.301,0.649,3.241c0.221,0.506,0.415,0.634,0.381,0.32
		c-0.02-0.186-0.032-0.376-0.032-0.571c0-2.281,1.227-4.129,2.739-4.129c1.512,0,2.739,1.848,2.739,4.129
		C26.714,34.354,26.613,34.958,26.437,35.497z"/>
	<path d="M35.644,32.818c0,0.75,0.132,1.455,0.362,2.073c0.193,0.517,0.404,0.715,0.379,0.489c-0.015-0.134-0.023-0.27-0.023-0.411
		c0-1.643,0.884-2.973,1.973-2.973c1.088,0,1.972,1.33,1.972,2.973c0,0.358-0.043,0.7-0.122,1.016
		c-0.133,0.536,0.032,0.703,0.395,0.287c0.706-0.807,1.16-2.056,1.16-3.455c0-2.431-1.367-4.406-3.047-4.406
		C37.012,28.412,35.644,30.388,35.644,32.818z"/>
	<path d="M57.219,32.817c0-18.332-11.528-24.293-25.75-24.293c-14.222,0-25.75,5.961-25.75,24.293
		c0,19.024,11.528,24.293,25.75,24.293C45.69,57.11,57.219,51.842,57.219,32.817z M16.415,22.497
		c-0.505-0.334-0.642-1.014-0.308-1.517c0.151-0.225,3.745-5.512,10.886-5.146c0.605,0.031,1.067,0.545,1.037,1.149
		c-0.014,0.263-0.118,0.499-0.283,0.681c-0.213,0.233-0.525,0.373-0.865,0.354c-5.91-0.301-8.92,4.129-8.95,4.171
		C17.595,22.697,16.918,22.831,16.415,22.497z M18.245,30.724c0-4.474,2.793-8.114,6.228-8.114c3.433,0,6.225,3.64,6.225,8.114
		c0,4.475-2.793,8.113-6.225,8.113C21.038,38.837,18.245,35.198,18.245,30.724z M42.955,48.165
		c-0.906,1.166-2.116,1.527-3.193,1.527c-0.805,0-1.536-0.202-2.01-0.419c-8.203-3.968-11.709-3.339-13.069-2.61
		c-1.262,0.675-1.429,1.776-1.436,1.823c-0.075,0.54-0.565,0.926-1.114,0.862c-0.542-0.067-0.931-0.549-0.872-1.092
		c0.01-0.086,0.253-2.124,2.405-3.317c3.008-1.667,8.031-0.817,14.938,2.524c0.158,0.07,1.788,0.74,2.771-0.525
		c0.339-0.435,0.966-0.516,1.403-0.177C43.215,47.101,43.294,47.728,42.955,48.165z M38.693,38.658c-2.473,0-4.483-2.619-4.483-5.84
		c0-3.222,2.011-5.842,4.483-5.842c2.471,0,4.481,2.62,4.481,5.842C43.175,36.039,41.164,38.658,38.693,38.658z M47.97,28.318
		c-0.549,0.253-1.197,0.017-1.452-0.537c-0.023-0.046-2.317-4.886-8.204-5.495c-0.339-0.034-0.626-0.22-0.801-0.483
		c-0.136-0.205-0.202-0.455-0.176-0.716c0.063-0.601,0.6-1.039,1.201-0.977c7.112,0.735,9.852,6.51,9.968,6.755
		C48.759,27.415,48.519,28.065,47.97,28.318z"/>
</g>
</svg>
