<?xml version="1.0" encoding="utf-8"?>
<!-- Generator: Adobe Illustrator 15.0.0, SVG Export Plug-In . SVG Version: 6.00 Build 0)  -->
<!DOCTYPE svg PUBLIC "-//W3C//DTD SVG 1.1//EN" "http://www.w3.org/Graphics/SVG/1.1/DTD/svg11.dtd">
<svg version="1.1" id="Layer_1" xmlns="http://www.w3.org/2000/svg" xmlns:xlink="http://www.w3.org/1999/xlink" x="0px" y="0px"
	 width="26px" height="26px" viewBox="0 0 26 26" enable-background="new 0 0 26 26" xml:space="preserve">
<rect fill="none" width="26" height="26"/>
<g>
	<path fill="#000000" d="M13,2.188c5.962,0,10.813,4.851,10.813,10.813S18.962,23.813,13,23.813S2.188,18.962,2.188,13
		S7.038,2.188,13,2.188 M13,0.188C5.924,0.188,0.188,5.924,0.188,13S5.924,25.813,13,25.813S25.813,20.076,25.813,13
		S20.076,0.188,13,0.188L13,0.188z"/>
</g>
<g>
	<g>
		<path fill="#000000" d="M22.898,12.327c0.021,0.756-0.383,1.572-1.273,1.572c-0.889,0-1.484-0.634-1.484-1.634
			c0-1.926-0.078-2.391-0.078-2.391S22.851,10.673,22.898,12.327z"/>
	</g>
</g>
<g>
	<g>
		<path fill="#000000" d="M4.102,13.327c-0.021,0.756,0.383,1.572,1.273,1.572c0.889,0,1.484-0.634,1.484-1.634
			c0-1.926,0.078-2.391,0.078-2.391S4.149,11.673,4.102,13.327z"/>
	</g>
</g>
<path fill="#000000" d="M20,9c0,0.625-1.896,0-3,0s-2,0.703-2,0s0.896-2,2-2S20,8.375,20,9z"/>
<path fill="#000000" d="M6,9c0,0.625,1.896,0,3,0s2,0.703,2,0s-0.896-2-2-2S6,8.375,6,9z"/>
<path fill="#000000" d="M7.084,18.974c0-2.774,1.991-5.884,5.916-5.884s5.916,3.109,5.916,5.884c0,0-1.903-0.996-5.916-0.996
	S7.084,18.974,7.084,18.974z"/>
</svg>
