<?xml version="1.0" encoding="iso-8859-1"?>
<!-- Generator: Adobe Illustrator 17.0.0, SVG Export Plug-In . SVG Version: 6.00 Build 0)  -->
<!DOCTYPE svg PUBLIC "-//W3C//DTD SVG 1.1//EN" "http://www.w3.org/Graphics/SVG/1.1/DTD/svg11.dtd">
<svg version="1.1" id="Capa_1" xmlns="http://www.w3.org/2000/svg" xmlns:xlink="http://www.w3.org/1999/xlink" x="0px" y="0px"
	 width="64px" height="64px" viewBox="0 0 64 64" style="enable-background:new 0 0 64 64;" xml:space="preserve">
<g>
	<path d="M31.608,3.979c-13.381,0-24.229,12.379-24.229,27.65c0,15.271,10.849,27.65,24.229,27.65
		c13.382,0,24.229-12.38,24.229-27.65C55.838,16.358,44.99,3.979,31.608,3.979z M28.646,11.514c0.443-0.085,0.988,0.205,1.167,0.621
		c1.815,4.217-2.676,4.487-8.056,6.709c-4.296,1.774-8.062,1.124-9.755,0.656c-0.532-0.147-0.502-0.233,0.042-0.324
		c1.105-0.186,3.267-0.916,7.124-3.425C23.837,12.714,27.188,11.791,28.646,11.514z M14.976,29.311
		c1.813-2.934,4.738-4.486,7.317-5.306c0.526-0.167,0.517-0.34-0.034-0.371c-0.824-0.046-1.542-0.012-2.075,0.039
		c-0.55,0.052-1.087-0.299-1.206-0.838s0.224-1.067,0.772-1.129c1.654-0.186,5.111-0.278,8.341,1.503
		c0.398,0.22,0.597,0.68,0.486,1.119c-0.111,0.44-0.505,0.751-0.959,0.757c-0.079,0.001-7.597,0.154-10.84,5.121
		c-0.302,0.462-0.897,0.669-1.392,0.424S14.686,29.781,14.976,29.311z M20.034,32.667c-0.276-1.709,1.2-2.689,2.23-3.156
		c0.503-0.228,0.656,0.028,0.671,0.58c0.01,0.365,0.082,0.872,0.266,1.576C23.803,33.963,20.451,35.25,20.034,32.667z
		 M17.998,38.468c0.503-0.228,0.656,0.028,0.671,0.58c0.01,0.365,0.082,0.872,0.266,1.576c0.602,2.296-2.75,3.583-3.167,1
		C15.493,39.915,16.968,38.935,17.998,38.468z M20.502,49.418c-0.672,0-1.062-0.261-1.11-0.66c-0.066-0.548,0.495-1.334,0.677-1.855
		l0.876-2.497c0.667-1.9,2.839-5.138,5.521-5.797c4.519-1.11,10.775-0.313,13.132,2.388c2.188,2.509,2.809,4.705,2.978,5.917
		c0.076,0.547,0.5,1.34,0.443,1.889c-0.039,0.373-0.414,0.614-1.076,0.614H20.502z M40.807,31.667
		c0.184-0.704,0.256-1.211,0.266-1.576c0.015-0.552,0.168-0.808,0.671-0.58c1.03,0.467,2.506,1.447,2.23,3.156
		C43.557,35.25,40.205,33.963,40.807,31.667z M48.219,30.207c-3.249-4.986-10.761-5.121-10.841-5.122
		c-0.454-0.005-0.849-0.314-0.96-0.755c-0.111-0.441,0.089-0.901,0.486-1.121c3.229-1.781,6.686-1.689,8.341-1.503
		c0.549,0.062,0.892,0.59,0.774,1.129l0,0c-0.118,0.54-0.654,0.891-1.204,0.84c-0.532-0.049-1.246-0.083-2.065-0.037
		c-0.551,0.031-0.562,0.203-0.036,0.371c2.576,0.821,5.495,2.372,7.305,5.302c0.29,0.47,0.084,1.074-0.41,1.319
		S48.52,30.67,48.219,30.207z M51.272,19.5c-1.693,0.468-5.459,1.118-9.755-0.656c-5.38-2.222-9.87-2.492-8.056-6.709
		c0.179-0.416,0.724-0.706,1.167-0.621c1.458,0.277,4.809,1.2,9.478,4.237c3.857,2.509,6.019,3.239,7.124,3.425
		C51.774,19.267,51.804,19.353,51.272,19.5z"/>
</g>
</svg>
