<?xml version="1.0" encoding="iso-8859-1"?>
<!-- Generator: Adobe Illustrator 17.0.0, SVG Export Plug-In . SVG Version: 6.00 Build 0)  -->
<!DOCTYPE svg PUBLIC "-//W3C//DTD SVG 1.1//EN" "http://www.w3.org/Graphics/SVG/1.1/DTD/svg11.dtd">
<svg version="1.1" id="Capa_1" xmlns="http://www.w3.org/2000/svg" xmlns:xlink="http://www.w3.org/1999/xlink" x="0px" y="0px"
	 width="64px" height="64px" viewBox="0 0 64 64" style="enable-background:new 0 0 64 64;" xml:space="preserve">
<g>
	<path d="M25.57,24.695c-0.409,0.018-0.719,0.668-1.11,1.047s-0.933,0.412-0.975,0.48c-0.026,0.042-0.049,0.084-0.069,0.13
		c-0.557,1.29-0.172,2.697,0.859,3.142c1.031,0.445,2.32-0.238,2.877-1.527c0.557-1.29,0.172-2.697-0.859-3.142
		C26.061,24.724,25.816,24.684,25.57,24.695z"/>
	<path d="M59.457,31.871c0-5.938-1.987-11.413-5.333-15.793c-0.335-0.439-0.509-0.976-0.44-1.239
		c0.041-0.156,0.064-0.319,0.064-0.488c0-0.177-0.023-0.349-0.066-0.513c-0.073-0.277-0.366-0.893-0.607-1.39
		c-0.998-2.055-3.426-6.155-7.508-7.749c-1.088-0.425-2.211-0.64-3.34-0.64c-2.024,0-3.735,0.691-4.967,1.409
		c-0.477,0.278-1.287,0.487-1.837,0.444c-0.662-0.052-1.33-0.081-2.004-0.081c-0.536,0-1.068,0.017-1.595,0.049
		c-0.551,0.034-1.363-0.18-1.841-0.455c-1.224-0.703-2.899-1.367-4.885-1.367c-1.129,0-2.254,0.215-3.342,0.64
		c-5.428,2.12-7.932,8.674-8.035,8.952c-0.076,0.204-0.116,0.414-0.123,0.623c-0.012,0.352-0.215,0.968-0.559,1.4
		c-3.539,4.446-5.659,10.073-5.659,16.198c0,14.381,11.66,26.04,26.041,26.04C47.799,57.91,59.457,46.252,59.457,31.871z
		 M51.086,13.433c0.237,0.499,0.053,0.635-0.388,0.303c-5.76-4.333-11.178-5.133-13.349-5.272c-0.551-0.035-0.68-0.34-0.238-0.671
		c1.293-0.969,4.109-2.551,7.487-1.232C48.121,7.937,50.255,11.687,51.086,13.433z M41.992,18.046c3.475,0,6.291,3.831,6.291,8.555
		c0,4.725-2.816,8.556-6.291,8.556s-6.291-3.831-6.291-8.556C35.701,21.877,38.518,18.046,41.992,18.046z M34.11,40.83
		c0.506,0,0.917,0.448,0.917,1v2c0,0.552,0.448,1,1,1h0.332c0.552,0,1-0.448,1-1v-2c0-0.552,0.411-1,0.917-1s0.917,0.448,0.917,1v2
		c0,0.552,0.448,1,1,1h0.332c0.552,0,1-0.448,1-1v-2c0-0.552,0.411-1,0.917-1s0.917,0.448,0.917,1v2c0,0.552,0.448,1,1,1h0.332
		c0.552,0,1-0.448,1-1v-2c0-0.552,0.411-1,0.917-1s0.917,0.448,0.917,1v3c0,0,0,0.224,0,0.5s-0.411,0.5-0.917,0.5h-0.917
		c0,0-0.111,0-0.249,0s-0.249,0.448-0.249,1v2.5c0,0.552-0.411,1-0.917,1s-0.917-0.448-0.917-1v-2.5c0-0.552-0.411-1-0.917-1h-0.917
		c0,0-0.112,0-0.249,0s-0.249,0.448-0.249,1v2.5c0,0.552-0.411,1-0.917,1s-0.917-0.448-0.917-1v-2.5c0-0.552-0.411-1-0.917-1h-0.917
		c0,0-0.112,0-0.249,0s-0.249,0.448-0.249,1v2.5c0,0.552-0.411,1-0.917,1s-0.917-0.448-0.917-1v-2.5c0-0.552-0.411-1-0.917-1h-0.917
		c0,0-0.112,0-0.249,0s-0.249,0.448-0.249,1v2.5c0,0.552-0.411,1-0.917,1s-0.917-0.448-0.917-1v-2.5c0-0.552-0.411-1-0.917-1h-0.917
		c0,0-0.111,0-0.249,0s-0.249,0.448-0.249,1v2.5c0,0.552-0.411,1-0.917,1s-0.917-0.448-0.917-1v-2.5c0-0.552-0.411-1-0.917-1h-0.917
		c0,0-0.111,0-0.249,0s-0.249,0.448-0.249,1v2.5c0,0.552-0.411,1-0.917,1s-0.917-0.448-0.917-1v-2.5c0-0.552-0.411-1-0.917-1
		s-0.917,0.448-0.917,1v2.5c0,0.552-0.411,1-0.917,1s-0.917-0.448-0.917-1v-3.5v-0.5c0,0,0-0.112,0-0.25s0.411-0.25,0.917-0.25
		s0.917-0.448,0.917-1v-2c0-0.552,0.411-1,0.917-1s0.917,0.448,0.917,1v2c0,0.552,0.448,1,1,1h0.332c0.552,0,1-0.448,1-1v-2
		c0-0.552,0.411-1,0.917-1s0.917,0.448,0.917,1v2c0,0.552,0.448,1,1,1h0.332c0.552,0,1-0.448,1-1v-2c0-0.552,0.411-1,0.917-1
		s0.917,0.448,0.917,1v2c0,0.552,0.448,1,1,1h0.332c0.552,0,1-0.448,1-1v-2C33.193,41.277,33.604,40.83,34.11,40.83z M31.283,26.602
		c0,4.725-2.816,8.556-6.291,8.556s-6.291-3.831-6.291-8.556c0-4.725,2.816-8.555,6.291-8.555S31.283,21.877,31.283,26.602z
		 M29.726,7.793c0.442,0.331,0.314,0.636-0.237,0.671c-2.171,0.139-7.588,0.938-13.35,5.271c-0.441,0.332-0.627,0.196-0.389-0.302
		c0.831-1.746,2.967-5.497,6.49-6.872C25.616,5.243,28.433,6.824,29.726,7.793z"/>
	<path d="M43.568,26.352c-0.02-0.045-0.042-0.087-0.065-0.128c-0.039-0.069-0.573-0.1-0.971-0.477
		c-0.398-0.377-0.709-1.034-1.118-1.052c-0.246-0.011-0.491,0.03-0.723,0.13c-1.031,0.445-1.416,1.852-0.859,3.142
		c0.557,1.289,1.846,1.973,2.877,1.527C43.74,29.049,44.125,27.642,43.568,26.352z"/>
</g>
</svg>
