<?xml version="1.0" encoding="iso-8859-1"?>
<!-- Generator: Adobe Illustrator 16.0.0, SVG Export Plug-In . SVG Version: 6.00 Build 0)  -->
<!DOCTYPE svg PUBLIC "-//W3C//DTD SVG 1.1//EN" "http://www.w3.org/Graphics/SVG/1.1/DTD/svg11.dtd">
<svg version="1.1" id="Capa_1" xmlns="http://www.w3.org/2000/svg" xmlns:xlink="http://www.w3.org/1999/xlink" x="0px" y="0px"
	 width="90.151px" height="92.36px" viewBox="0 0 90.151 92.36" style="enable-background:new 0 0 90.151 92.36;"
	 xml:space="preserve">
<g>
	<path style="fill-rule:evenodd;clip-rule:evenodd;" d="M89.565,32.36c1.5-16-16-17.5-16-17.5c-5-14.5-18-7-18-7
		c-6.5-14.5-19.5-4.5-19.5-4.5c-18.5-5.5-20.5,10.5-20.5,10.5c-1.312,4.964-0.896,21.13-0.896,21.13
		c-1.25-9.5-8.604-3.13-8.604-3.13c-9.5,10.5-5,18-5,18c8,14,27,32.5,27,32.5c7,6,3,9.5,3,9.5l48.5,0.5l2.666-9
		C93.231,62.36,89.565,32.36,89.565,32.36z"/>
</g>
<g>
</g>
<g>
</g>
<g>
</g>
<g>
</g>
<g>
</g>
<g>
</g>
<g>
</g>
<g>
</g>
<g>
</g>
<g>
</g>
<g>
</g>
<g>
</g>
<g>
</g>
<g>
</g>
<g>
</g>
</svg>
