<?xml version="1.0" encoding="iso-8859-1"?>
<!-- Generator: Adobe Illustrator 17.0.0, SVG Export Plug-In . SVG Version: 6.00 Build 0)  -->
<!DOCTYPE svg PUBLIC "-//W3C//DTD SVG 1.1//EN" "http://www.w3.org/Graphics/SVG/1.1/DTD/svg11.dtd">
<svg version="1.1" id="Capa_1" xmlns="http://www.w3.org/2000/svg" xmlns:xlink="http://www.w3.org/1999/xlink" x="0px" y="0px"
	 width="64px" height="64px" viewBox="0 0 64 64" style="enable-background:new 0 0 64 64;" xml:space="preserve">
<g>
	<path d="M25.496,21.998c-0.409,0.018-0.719,0.668-1.11,1.047s-0.933,0.412-0.975,0.48c-0.026,0.042-0.049,0.084-0.069,0.13
		c-0.557,1.29-0.172,2.697,0.859,3.142c1.031,0.445,2.32-0.238,2.877-1.527c0.557-1.29,0.172-2.697-0.859-3.142
		C25.987,22.028,25.742,21.988,25.496,21.998z"/>
	<path d="M41.658,4.583c-0.916,0-1.768,0.142-2.541,0.364c-0.531,0.153-1.385,0.24-1.932,0.16c-1.23-0.18-2.487-0.277-3.768-0.277
		c-0.171,0-0.341,0.003-0.511,0.008c-0.282,0.008-0.838-0.287-1.28-0.619c-1.192-0.895-3.361-2.162-6.1-2.162
		c-1.129,0-2.252,0.215-3.34,0.64c-5.43,2.12-7.932,8.674-8.035,8.952c-0.1,0.265-0.134,0.537-0.113,0.804
		c0.035,0.451-0.083,1.112-0.441,1.532c-3.877,4.546-6.22,10.441-6.22,16.884c0,13.147,9.743,24.018,22.402,25.787
		c0.547,0.076,1.267,0.473,1.631,0.889c2.73,3.127,6.661,5.525,11.915,3.84c5.044-1.618,6.726-5.691,7.019-9.777
		c0.04-0.551,0.386-1.289,0.79-1.665c5.117-4.754,8.323-11.538,8.323-19.074c0-6.387-2.3-12.236-6.117-16.767
		c-0.356-0.422-0.843-1.16-1.098-1.65C51.12,10.293,48.766,6.694,45,5.224C43.912,4.799,42.787,4.583,41.658,4.583z M24.918,32.461
		c-3.475,0-6.291-3.831-6.291-8.556s2.816-8.555,6.291-8.555c3.475,0,6.291,3.831,6.291,8.555S28.393,32.461,24.918,32.461z
		 M16.914,11.433c0.831-1.746,2.965-5.497,6.489-6.872c3.378-1.318,6.194,0.263,7.487,1.232c0.442,0.331,0.314,0.636-0.237,0.671
		c-2.171,0.139-7.588,0.938-13.349,5.271C16.862,12.067,16.676,11.932,16.914,11.433z M32.475,51.767l-0.34-1.035
		c-0.107-0.323,0.066-0.677,0.389-0.79l12.229-4.311c0.322-0.113,0.709,0.04,0.867,0.341c0,0,0.106,0.204,0.237,0.456
		s0.363,0.886,0.488,1.424c0.715,3.066,1.355,9.038-3.878,10.716C36.635,60.439,33.445,54.135,32.475,51.767z M41.918,32.461
		c-3.475,0-6.291-3.831-6.291-8.556s2.816-8.555,6.291-8.555c3.475,0,6.291,3.831,6.291,8.555S45.393,32.461,41.918,32.461z
		 M37.076,8.793c1.293-0.969,4.11-2.551,7.486-1.232c3.523,1.376,5.659,5.126,6.49,6.872c0.237,0.499,0.053,0.635-0.388,0.303
		c-5.762-4.333-11.179-5.133-13.351-5.272C36.763,9.429,36.634,9.124,37.076,8.793z"/>
	<path d="M41.458,25.051c-0.398-0.377-0.709-1.034-1.118-1.052c-0.246-0.011-0.491,0.03-0.723,0.13
		c-1.031,0.445-1.416,1.852-0.859,3.142c0.557,1.289,1.846,1.973,2.877,1.527c1.031-0.445,1.416-1.852,0.859-3.142
		c-0.02-0.045-0.042-0.087-0.065-0.128C42.39,25.459,41.856,25.428,41.458,25.051z"/>
	<path d="M39.041,48.513c-0.488,0.175-0.664,0.707-0.393,1.189l1.805,3.214c0.172,0.297,0.482,0.464,0.803,0.464
		c0.156,0,0.314-0.04,0.459-0.123c0.442-0.254,0.596-0.819,0.342-1.262l-1.643-2.928C40.143,48.587,39.529,48.338,39.041,48.513z"/>
</g>
</svg>
