<?xml version="1.0" encoding="iso-8859-1"?>
<!-- Generator: Adobe Illustrator 17.0.0, SVG Export Plug-In . SVG Version: 6.00 Build 0)  -->
<!DOCTYPE svg PUBLIC "-//W3C//DTD SVG 1.1//EN" "http://www.w3.org/Graphics/SVG/1.1/DTD/svg11.dtd">
<svg version="1.1" id="Capa_1" xmlns="http://www.w3.org/2000/svg" xmlns:xlink="http://www.w3.org/1999/xlink" x="0px" y="0px"
	 width="64px" height="64px" viewBox="0 0 64 64" style="enable-background:new 0 0 64 64;" xml:space="preserve">
<g>
	<path d="M33.338,58.375c14.222,0,25.75-5.269,25.75-24.293c0-18.332-11.527-24.293-25.75-24.293
		c-14.222,0-25.75,5.961-25.75,24.293C7.588,53.106,19.117,58.375,33.338,58.375z M49.539,29.441
		c-0.145,0.172-0.354,0.27-0.578,0.27c-0.174,0-0.344-0.061-0.478-0.173c-1.635-1.362-3.294-2.053-4.932-2.053
		c-2.726,0-4.459,1.897-4.531,1.978c-0.273,0.297-0.767,0.318-1.06,0.054c-0.306-0.277-0.33-0.751-0.055-1.058
		c0.096-0.103,2.318-2.462,5.695-2.462c1.975,0,3.94,0.804,5.843,2.388C49.76,28.65,49.803,29.124,49.539,29.441z M37.31,18.614
		c6.537-2.898,11.786,0.75,12.008,0.906c0.492,0.35,0.607,1.033,0.258,1.526c-0.352,0.492-1.031,0.609-1.527,0.256
		c-0.043-0.028-4.439-3.087-9.85-0.688c-0.312,0.139-0.652,0.12-0.936-0.021c-0.219-0.11-0.401-0.294-0.509-0.534
		C36.51,19.505,36.76,18.859,37.31,18.614z M32.534,38.652c0.478,0.176,1.131,0.176,1.609,0c0.269-0.099,0.572-0.164,0.903-0.164
		c0.632,0,1.239,0.234,1.807,0.695c0.439,0.357,0.828,0.719,1.206,1.069c0.879,0.814,1.617,1.504,2.233,1.359
		c0.261-0.062,0.574,0.039,0.755,0.266c0.178,0.226,0.211,0.539,0.084,0.797c-0.012,0.026-0.086,0.174-0.223,0.394
		c-0.132,0.212-0.357,0.812-0.522,1.339c-0.658,2.099-2.432,6.47-6.009,7.395c-0.535,0.138-1.437,0.139-1.973,0.004
		c-3.656-0.916-5.45-5.296-6.112-7.399c-0.166-0.527-0.391-1.127-0.523-1.34c-0.136-0.22-0.21-0.367-0.223-0.393
		c-0.127-0.258-0.094-0.571,0.084-0.797c0.178-0.227,0.479-0.334,0.758-0.265c0.6,0.141,1.339-0.534,2.2-1.333
		c0.38-0.353,0.786-0.729,1.236-1.096c0.568-0.462,1.176-0.696,1.807-0.696C31.962,38.488,32.265,38.553,32.534,38.652z
		 M28.879,29.441c-0.143,0.172-0.354,0.27-0.577,0.27c-0.174,0-0.344-0.061-0.479-0.173c-1.634-1.362-3.293-2.053-4.93-2.053
		c-2.721,0-4.461,1.898-4.533,1.978c-0.271,0.297-0.766,0.32-1.06,0.053c-0.306-0.276-0.33-0.751-0.055-1.058
		c0.096-0.103,2.318-2.462,5.695-2.462c1.975,0,3.941,0.804,5.843,2.388C29.1,28.65,29.143,29.124,28.879,29.441z M16.121,19.52
		c0.222-0.156,5.471-3.805,12.007-0.906c0.552,0.245,0.801,0.892,0.556,1.444c-0.107,0.24-0.29,0.424-0.509,0.534
		c-0.283,0.142-0.624,0.16-0.935,0.021c-5.41-2.398-9.807,0.66-9.85,0.688c-0.496,0.354-1.176,0.236-1.527-0.256
		C15.513,20.553,15.629,19.87,16.121,19.52z"/>
	<path d="M35.718,45.942c-0.231-0.021-0.772,0.234-1.299,0.397c-0.292,0.09-0.644,0.153-1.063,0.16
		c-0.025,0-0.051,0.001-0.076,0.001c-0.408,0-0.751-0.058-1.038-0.147c-0.528-0.163-1.062-0.431-1.292-0.411
		c-0.13,0.011-0.268,0.018-0.417,0.018c-0.162,0-0.336-0.006-0.522-0.021c-0.314-0.024-0.611-0.08-0.891-0.16
		c-0.482-0.138-0.675,0.084-0.431,0.58c0.797,1.62,2.008,3.328,3.724,3.909c0.523,0.177,1.433,0.177,1.954-0.008
		c1.661-0.588,2.845-2.289,3.63-3.902c0.242-0.497,0.046-0.719-0.437-0.58c-0.28,0.08-0.578,0.136-0.894,0.16
		c-0.189,0.015-0.365,0.021-0.527,0.021C35.989,45.961,35.849,45.954,35.718,45.942z"/>
	<path d="M30.563,44.46c0.243-0.002,0.488-0.112,0.567-0.195c0.047-0.049,0.099-0.094,0.158-0.133
		c0.096-0.065,0.2-0.108,0.306-0.133c0.18-0.042,0.55-0.287,0.912-0.472c0.192-0.098,0.422-0.165,0.709-0.165
		c0.007,0,0.039,0.001,0.07,0.002c0.039,0.001,0.093,0.002,0.12,0l0.049-0.002c0.659,0,1.017,0.344,1.279,0.595
		c0.312,0.3,0.626,0.581,1.82,0.487c0.756-0.057,1.39-0.387,1.898-0.8c0.428-0.349,0.29-0.88-0.156-1.207
		c-0.42-0.308-0.829-0.688-1.251-1.08c-0.341-0.316-0.725-0.675-1.138-1.011c-0.293-0.237-0.583-0.358-0.86-0.358
		c-0.606,0-1.084,0.556-1.089,0.562c-0.14,0.173-0.352,0.274-0.58,0.274c-0.107,0-0.237-0.023-0.359-0.07
		c-0.19-0.074-0.487-0.428-0.79-0.596c-0.171-0.095-0.375-0.169-0.597-0.169c-0.277,0-0.567,0.121-0.86,0.359
		c-0.421,0.344-0.819,0.714-1.139,1.011c-0.42,0.39-0.828,0.769-1.246,1.076c-0.445,0.327-0.585,0.859-0.157,1.208
		c0.508,0.414,1.141,0.745,1.895,0.802C30.287,44.457,30.432,44.462,30.563,44.46z"/>
</g>
</svg>
