<?xml version="1.0" encoding="iso-8859-1"?>
<!-- Generator: Adobe Illustrator 17.0.0, SVG Export Plug-In . SVG Version: 6.00 Build 0)  -->
<!DOCTYPE svg PUBLIC "-//W3C//DTD SVG 1.1//EN" "http://www.w3.org/Graphics/SVG/1.1/DTD/svg11.dtd">
<svg version="1.1" id="Capa_1" xmlns="http://www.w3.org/2000/svg" xmlns:xlink="http://www.w3.org/1999/xlink" x="0px" y="0px"
	 width="64px" height="64px" viewBox="0 0 64 64" style="enable-background:new 0 0 64 64;" xml:space="preserve">
<g>
	<path d="M50.812,17.717c-4.255-7.014-11.271-13.64-18.676-13.64c-7.405,0-14.42,6.625-18.675,13.64
		c-0.286,0.472-0.957,0.882-1.5,0.981c-1.87,0.341-3.058,1.279-3.272,2.649c-0.201,1.287-0.39,2.502,0.395,3.417
		c0.152,0.177,0.322,0.318,0.499,0.431c0.309,0.196,0.488,0.71,0.371,1.25c-0.436,2.009-0.655,4.071-0.655,6.159
		c0,14.262,10.245,28.527,22.837,28.527c12.593,0,22.838-14.266,22.838-28.527c0-2.088-0.22-4.15-0.655-6.159
		c-0.117-0.54,0.062-1.055,0.371-1.25c0.178-0.112,0.348-0.254,0.499-0.431c0.783-0.915,0.595-2.13,0.394-3.417
		c-0.214-1.371-1.402-2.308-3.272-2.649C51.768,18.599,51.099,18.189,50.812,17.717z M13.867,24.725
		c0.24-0.498,0.062-0.769-0.484-0.686c-3.027,0.461-2.884-0.53-2.575-2.508c0.248-1.592,3.444-2.072,7.197-1.026
		c0.532,0.148,1.382,0.189,1.919,0.124c0.319-0.038,0.645-0.059,0.976-0.059c2.768,0,5.192,1.314,6.535,3.282
		c0.311,0.456,0.961,0.821,1.441,0.547c0.624-0.356,0.988-0.912,1.181-1.32c0.034-0.085,0.068-0.169,0.101-0.255
		c0.055-0.141,0.062-0.139,0.007,0.003c-0.029,0.073-0.064,0.159-0.109,0.252c-0.319,0.802-0.672,1.434-1.053,1.922
		c-0.34,0.435-0.585,1.081-0.515,1.551c0.042,0.281,0.064,0.567,0.064,0.858c0,3.777-3.426,6.839-7.653,6.839
		c-4.227,0-7.653-3.061-7.653-6.839C13.248,26.456,13.47,25.549,13.867,24.725z M36.738,45.006
		c-3.586-1.824-7.513-0.258-9.217,0.617c-0.491,0.252-1.118,0.12-1.424-0.339l-0.367-0.551c-0.306-0.46-0.179-1.078,0.307-1.34
		c2.031-1.095,7.278-3.343,12.211-0.6c0.483,0.268,0.598,0.896,0.286,1.352l-0.373,0.546C37.85,45.146,37.23,45.256,36.738,45.006z
		 M50.11,24.725c0.398,0.824,0.62,1.731,0.62,2.685c0,3.777-3.427,6.839-7.653,6.839c-4.227,0-7.653-3.061-7.653-6.839
		c0-0.291,0.022-0.577,0.064-0.858c0.07-0.47-0.175-1.116-0.515-1.551c-0.381-0.487-0.734-1.12-1.054-1.922
		c-0.044-0.093-0.08-0.178-0.108-0.252c-0.055-0.142-0.048-0.144,0.007-0.003c0.034,0.086,0.068,0.17,0.101,0.255
		c0.194,0.408,0.558,0.964,1.181,1.32c0.48,0.274,1.129-0.091,1.441-0.547c1.344-1.968,3.767-3.282,6.536-3.282
		c0.331,0,0.657,0.021,0.976,0.059c0.537,0.065,1.387,0.024,1.919-0.124c3.753-1.046,6.949-0.566,7.198,1.026
		c0.308,1.978,0.451,2.969-2.576,2.508C50.047,23.956,49.87,24.228,50.11,24.725z"/>
	<path d="M21.422,25.246c-0.491,0.1-0.728,0.447-0.646,0.702c0.049,0.15,0.075,0.31,0.075,0.477c0,0.864-0.701,1.564-1.566,1.564
		c-0.09,0-0.178-0.009-0.264-0.025c-0.144-0.027-0.252,0.4,0.018,0.882c0.538,0.958,1.802,1.632,3.283,1.632
		c1.971,0,3.569-1.191,3.569-2.661c0-1.47-1.598-2.661-3.569-2.661C22.011,25.155,21.709,25.188,21.422,25.246z"/>
	<path d="M43.2,25.948c0.083-0.255-0.155-0.601-0.645-0.702c-0.287-0.059-0.588-0.091-0.901-0.091c-1.972,0-3.569,1.191-3.569,2.661
		c0,1.47,1.598,2.661,3.569,2.661c1.48,0,2.745-0.673,3.283-1.632c0.27-0.482,0.162-0.909,0.018-0.882
		c-0.086,0.016-0.173,0.025-0.264,0.025c-0.865,0-1.566-0.7-1.566-1.564C43.125,26.258,43.151,26.098,43.2,25.948z"/>
</g>
</svg>
