<?xml version="1.0" encoding="iso-8859-1"?>
<!-- Generator: Adobe Illustrator 17.0.0, SVG Export Plug-In . SVG Version: 6.00 Build 0)  -->
<!DOCTYPE svg PUBLIC "-//W3C//DTD SVG 1.1//EN" "http://www.w3.org/Graphics/SVG/1.1/DTD/svg11.dtd">
<svg version="1.1" id="Capa_1" xmlns="http://www.w3.org/2000/svg" xmlns:xlink="http://www.w3.org/1999/xlink" x="0px" y="0px"
	 width="64px" height="64px" viewBox="0 0 64 64" style="enable-background:new 0 0 64 64;" xml:space="preserve">
<g>
	<path d="M32.674,4.727c-13.381,0-24.23,12.379-24.23,27.65c0,15.27,10.85,27.65,24.23,27.65c13.382,0,24.23-12.38,24.23-27.65
		C56.903,17.105,46.056,4.727,32.674,4.727z M17.098,23.113c0.273-0.48,0.108-0.814-0.444-0.834
		c-1.423-0.053-2.576-0.294-3.324-0.499c-0.533-0.146-0.502-0.23,0.042-0.321c1.105-0.186,3.267-0.916,7.124-3.425
		c4.669-3.037,8.02-3.96,9.478-4.237c0.443-0.085,0.988,0.205,1.167,0.621c1.256,2.918-0.511,3.947-3.499,5.04
		c-0.519,0.19-0.513,0.473-0.016,0.712c2.404,1.156,4.04,3.412,4.04,6.012c0,3.776-3.444,6.839-7.693,6.839
		c-4.25,0-7.695-3.062-7.695-6.839C16.277,25.078,16.574,24.036,17.098,23.113z M36.036,51.705
		c-1.172-1.632-3.686-3.805-7.791-1.005c-2.225,1.517-3.392,1.307-3.982,0.853c-0.438-0.337-0.615-1.254-0.648-1.806
		c-0.177-2.904-0.048-11.193,7.142-11.719c8.32-0.609,15.65,20.51,7.396,15.918C37.386,53.519,36.548,52.417,36.036,51.705z
		 M52.601,23.782c-0.665,0.184-1.651,0.395-2.863,0.477c-0.551,0.037-0.783,0.429-0.604,0.952c0.214,0.624,0.331,1.285,0.331,1.971
		c0,3.776-3.444,6.839-7.693,6.839c-4.25,0-7.695-3.062-7.695-6.839c0-2.178,1.149-4.114,2.935-5.365
		c0.452-0.317,0.433-0.674-0.072-0.898c-2.129-0.941-3.2-2.059-2.149-4.502c0.179-0.416,0.724-0.706,1.167-0.621
		c1.458,0.277,4.809,1.2,9.478,4.237c3.857,2.509,6.019,3.239,7.124,3.425C53.103,23.55,53.133,23.636,52.601,23.782z"/>
	<path d="M23.008,24.521c-0.312,0-0.613,0.032-0.9,0.091c-0.491,0.1-0.729,0.447-0.646,0.702c0.049,0.15,0.076,0.31,0.076,0.477
		c0,0.864-0.701,1.565-1.566,1.565c-0.09,0-0.178-0.009-0.263-0.025c-0.144-0.027-0.252,0.4,0.018,0.882
		c0.537,0.958,1.802,1.632,3.282,1.632c1.972,0,3.57-1.192,3.57-2.661C26.578,25.713,24.979,24.521,23.008,24.521z"/>
	<path d="M43.886,25.314c0.082-0.255-0.155-0.601-0.646-0.702c-0.287-0.059-0.588-0.091-0.901-0.091
		c-1.972,0-3.569,1.191-3.569,2.661c0,1.47,1.598,2.661,3.569,2.661c1.48,0,2.745-0.674,3.283-1.632
		c0.27-0.482,0.162-0.909,0.018-0.882c-0.085,0.016-0.173,0.025-0.264,0.025c-0.864,0-1.565-0.7-1.565-1.565
		C43.81,25.624,43.837,25.464,43.886,25.314z"/>
	<path d="M51.369,11.899c0.455,2.617,3.641,1.023,2.844-1.252c-0.699-1.999-2.715-3.295-4.893-3.504
		c-0.5-0.048-0.604,0.248-0.262,0.615C49.834,8.589,51.062,10.142,51.369,11.899z"/>
	<path d="M8.502,22.708c-0.209-1.772,0.525-3.611,1.031-4.628c0.224-0.45,0.039-0.703-0.428-0.515
		c-2.025,0.822-3.588,2.641-3.687,4.756C5.306,24.73,8.815,25.347,8.502,22.708z"/>
</g>
</svg>
