<?xml version="1.0" encoding="iso-8859-1"?>
<!-- Generator: Adobe Illustrator 17.0.0, SVG Export Plug-In . SVG Version: 6.00 Build 0)  -->
<!DOCTYPE svg PUBLIC "-//W3C//DTD SVG 1.1//EN" "http://www.w3.org/Graphics/SVG/1.1/DTD/svg11.dtd">
<svg version="1.1" id="Capa_1" xmlns="http://www.w3.org/2000/svg" xmlns:xlink="http://www.w3.org/1999/xlink" x="0px" y="0px"
	 width="64px" height="64px" viewBox="0 0 64 64" style="enable-background:new 0 0 64 64;" xml:space="preserve">
<g>
	<path d="M58.07,35.791c-0.477,0.278-0.785,0.092-0.732-0.458c0.078-0.811,0.12-1.631,0.12-2.463c0-0.347-0.009-0.693-0.025-1.036
		c-0.025-0.552,0.396-0.982,0.92-1.158c0.588-0.197,1.115-0.575,1.495-1.117c0.951-1.356,0.623-3.228-0.734-4.179
		c-0.854-0.599-1.685-1.081-2.495-1.474c-0.497-0.241-1.068-0.823-1.28-1.326c-0.212-0.502-0.275-0.865-0.113-0.823
		c0.097,0.025,0.194,0.051,0.291,0.082c0.248,0.079,0.502,0.116,0.752,0.116c1.41-0.009,2.52-1.125,2.52-2.5
		c0-0.759-0.338-1.44-0.873-1.898c-0.945-0.984-4.811-4.692-9.645-5.267c-0.548-0.065-1.352-0.347-1.802-0.667
		c-4.249-3.016-9.441-4.794-15.049-4.794c-14.382,0-26.04,11.658-26.04,26.04c0,14.381,11.658,26.04,26.04,26.04
		c7.485,0,14.226-3.162,18.975-8.217c0.378-0.403,0.674-0.276,0.903,0.227c0.192,0.422,0.525,0.826,1.091,1.21
		c1.572,1.063,4.553,0.195,7.779-5.604c3.859-6.935,3.062-10.18,1.131-11.394C60.522,34.644,59.279,35.087,58.07,35.791z
		 M36.061,18.577c0.291,0.469,0.061,0.707-0.465,0.539c-2.072-0.66-7.409-1.886-14.352,0.055c-0.532,0.149-0.655-0.045-0.253-0.423
		c1.409-1.324,4.762-4.041,8.544-4.041C33.161,14.706,35.209,17.204,36.061,18.577z M38.172,28.986
		c-0.389,0.555-1.008,0.851-1.639,0.851c-0.396,0-0.797-0.118-1.146-0.363c-6.058-4.252-9.3-0.515-9.435-0.353
		c-0.71,0.847-1.971,0.958-2.817,0.249c-0.847-0.709-0.958-1.97-0.249-2.817c1.957-2.339,7.572-5.425,14.798-0.353
		C38.588,26.834,38.807,28.081,38.172,28.986z M56.753,18.748c0.402,0.378,0.281,0.572-0.251,0.424
		c-6.942-1.941-12.279-0.715-14.353-0.055c-0.526,0.168-0.757-0.07-0.466-0.539c0.852-1.373,2.9-3.87,6.526-3.87
		C51.991,14.706,55.343,17.424,56.753,18.748z M45.854,28.854c-0.721,0.824-1.981,0.925-2.812,0.215
		c-0.834-0.711-0.949-1.95-0.248-2.792c1.961-2.355,7.576-5.459,14.809-0.354c0.902,0.637,1.117,1.885,0.48,2.787
		c-0.391,0.552-1.008,0.847-1.637,0.847c-0.398,0-0.801-0.119-1.15-0.366C49.44,25.059,46.203,28.453,45.854,28.854z M57.861,44.266
		c-1.113,2.03-2.762,3.268-3.684,2.762c-0.922-0.505-0.766-2.561,0.35-4.591c1.115-2.031,2.764-3.268,3.684-2.763
		C59.133,40.179,58.977,42.235,57.861,44.266z"/>
</g>
</svg>
