<?xml version="1.0" encoding="iso-8859-1"?>
<!-- Generator: Adobe Illustrator 17.0.0, SVG Export Plug-In . SVG Version: 6.00 Build 0)  -->
<!DOCTYPE svg PUBLIC "-//W3C//DTD SVG 1.1//EN" "http://www.w3.org/Graphics/SVG/1.1/DTD/svg11.dtd">
<svg version="1.1" id="Capa_1" xmlns="http://www.w3.org/2000/svg" xmlns:xlink="http://www.w3.org/1999/xlink" x="0px" y="0px"
	 width="64px" height="64px" viewBox="0 0 64 64" style="enable-background:new 0 0 64 64;" xml:space="preserve">
<g>
	<path d="M17.682,30.771c0,1.191,0.239,2.301,0.649,3.241c0.221,0.506,0.415,0.634,0.381,0.32c-0.02-0.186-0.032-0.376-0.032-0.571
		c0-2.281,1.227-4.129,2.739-4.129c1.512,0,2.739,1.848,2.739,4.129c0,0.641-0.1,1.245-0.277,1.784
		c-0.172,0.525-0.007,0.693,0.389,0.308c1.132-1.099,1.88-2.966,1.88-5.081c0-3.376-1.899-6.121-4.233-6.121
		C19.581,24.649,17.682,27.394,17.682,30.771z"/>
	<path d="M38.682,30.771c0,1.191,0.239,2.301,0.649,3.241c0.221,0.506,0.415,0.634,0.381,0.32c-0.02-0.186-0.032-0.376-0.032-0.571
		c0-2.281,1.227-4.129,2.739-4.129c1.512,0,2.739,1.848,2.739,4.129c0,0.641-0.1,1.245-0.277,1.784
		c-0.172,0.525-0.007,0.693,0.389,0.308c1.132-1.099,1.88-2.966,1.88-5.081c0-3.376-1.899-6.121-4.233-6.121
		C40.581,24.649,38.682,27.394,38.682,30.771z"/>
	<path d="M32.417,57.375c14.222,0,25.75-5.269,25.75-24.293c0-18.332-11.528-24.293-25.75-24.293S6.667,14.75,6.667,33.082
		C6.667,52.106,18.195,57.375,32.417,57.375z M21.917,38.884c-3.435,0-6.227-3.639-6.227-8.113c0-4.474,2.793-8.114,6.227-8.114
		c3.433,0,6.226,3.641,6.226,8.114C28.143,35.245,25.35,38.884,21.917,38.884z M42.917,38.884c-3.435,0-6.227-3.639-6.227-8.113
		c0-4.474,2.793-8.114,6.227-8.114c3.433,0,6.226,3.641,6.226,8.114C49.143,35.245,46.35,38.884,42.917,38.884z M37.007,16.632
		c6.537-2.899,11.786,0.75,12.008,0.906c0.492,0.35,0.607,1.033,0.258,1.525c-0.352,0.492-1.031,0.609-1.527,0.256
		c-0.043-0.027-4.439-3.086-9.85-0.688c-0.312,0.139-0.652,0.119-0.935-0.021c-0.219-0.111-0.401-0.295-0.509-0.535
		C36.206,17.522,36.456,16.876,37.007,16.632z M32.612,40.224c2.837,0,5.137,3.06,5.137,6.833c0,3.773-2.3,6.833-5.137,6.833
		c-2.838,0-5.138-3.06-5.138-6.833C27.475,43.283,29.774,40.224,32.612,40.224z M15.817,17.538
		c0.222-0.156,5.471-3.805,12.008-0.906c0.551,0.244,0.801,0.891,0.556,1.443c-0.108,0.24-0.29,0.424-0.509,0.535
		c-0.283,0.141-0.624,0.16-0.936,0.021c-5.41-2.398-9.807,0.66-9.85,0.688c-0.496,0.354-1.176,0.236-1.527-0.256
		C15.21,18.571,15.325,17.888,15.817,17.538z"/>
</g>
</svg>
