<?xml version="1.0" encoding="iso-8859-1"?>
<!-- Generator: Adobe Illustrator 17.0.0, SVG Export Plug-In . SVG Version: 6.00 Build 0)  -->
<!DOCTYPE svg PUBLIC "-//W3C//DTD SVG 1.1//EN" "http://www.w3.org/Graphics/SVG/1.1/DTD/svg11.dtd">
<svg version="1.1" id="Capa_1" xmlns="http://www.w3.org/2000/svg" xmlns:xlink="http://www.w3.org/1999/xlink" x="0px" y="0px"
	 width="64px" height="64px" viewBox="0 0 64 64" style="enable-background:new 0 0 64 64;" xml:space="preserve">
<g>
	<path d="M37.711,27.654c0,0.77,0.136,1.493,0.374,2.126c0.195,0.517,0.404,0.711,0.379,0.482c-0.015-0.136-0.023-0.275-0.023-0.418
		c0-1.67,0.898-3.024,2.006-3.024c1.108,0,2.007,1.354,2.007,3.024c0,0.371-0.046,0.723-0.128,1.049
		c-0.136,0.535,0.03,0.703,0.395,0.289c0.725-0.82,1.192-2.095,1.192-3.527c0-2.472-1.391-4.483-3.101-4.483
		C39.102,23.171,37.711,25.183,37.711,27.654z"/>
	<path d="M58.81,32.877c0-18.332-11.528-24.293-25.75-24.293c-14.222,0-25.75,5.96-25.75,24.293
		c0,19.024,11.528,24.293,25.75,24.293C47.282,57.17,58.81,51.901,58.81,32.877z M20.761,20.693
		c-0.092-0.598,0.318-1.156,0.915-1.248c0.269-0.04,6.597-0.943,11.136,4.582c0.383,0.467,0.315,1.157-0.151,1.54
		c-0.204,0.167-0.449,0.249-0.694,0.249c-0.316,0-0.63-0.137-0.846-0.4c-3.757-4.572-9.059-3.814-9.11-3.808
		C21.409,21.702,20.854,21.291,20.761,20.693z M22.798,28.266c-0.401,0.075-0.778-0.188-0.852-0.584
		c-0.073-0.396,0.188-0.777,0.583-0.851c0.236-0.044,5.809-1.038,8.965,2.315c0.275,0.293,0.262,0.755-0.032,1.031
		c-0.141,0.133-0.32,0.198-0.5,0.198c-0.193,0-0.388-0.077-0.531-0.229C27.817,27.368,22.847,28.257,22.798,28.266z M40.288,42.323
		c-1.406,2.536-5.099,7.66-10.967,5.146c-4.69-2.01-3.695-7.129-2.893-9.59c0.25-0.767,0.667-0.722,0.967,0.025
		c0.614,1.528,1.966,3.904,4.662,4.935c2.83,1.082,5.944-0.172,7.628-1.07C40.396,41.39,40.678,41.619,40.288,42.323z
		 M40.812,33.596c-2.515,0-4.56-2.665-4.56-5.941c0-3.276,2.045-5.942,4.56-5.942c2.514,0,4.56,2.665,4.56,5.942
		C45.372,30.931,43.326,33.596,40.812,33.596z M45.012,22.332c-0.153,0.075-0.316,0.11-0.476,0.11c-0.407,0-0.797-0.228-0.986-0.618
		c-0.007-0.015-0.952-1.892-2.479-2.019c-1.257-0.101-2.481,1.203-2.843,1.715c-0.349,0.493-1.032,0.613-1.523,0.266
		c-0.494-0.346-0.616-1.024-0.271-1.518c0.082-0.118,2.034-2.875,4.819-2.643c2.779,0.232,4.209,3.124,4.269,3.247
		C45.784,21.415,45.557,22.07,45.012,22.332z"/>
</g>
</svg>
