<?xml version="1.0" encoding="iso-8859-1"?>
<!-- Generator: Adobe Illustrator 17.0.0, SVG Export Plug-In . SVG Version: 6.00 Build 0)  -->
<!DOCTYPE svg PUBLIC "-//W3C//DTD SVG 1.1//EN" "http://www.w3.org/Graphics/SVG/1.1/DTD/svg11.dtd">
<svg version="1.1" id="Capa_1" xmlns="http://www.w3.org/2000/svg" xmlns:xlink="http://www.w3.org/1999/xlink" x="0px" y="0px"
	 width="64px" height="64px" viewBox="0 0 64 64" style="enable-background:new 0 0 64 64;" xml:space="preserve">
<g>
	<path d="M18.827,30.724c-0.491,0.1-0.729,0.447-0.646,0.702c0.049,0.15,0.076,0.31,0.076,0.477c0,0.864-0.701,1.565-1.566,1.565
		c-0.09,0-0.178-0.009-0.263-0.025c-0.144-0.027-0.252,0.4,0.018,0.882c0.537,0.958,1.802,1.632,3.282,1.632
		c1.972,0,3.57-1.191,3.57-2.661c0-1.47-1.599-2.661-3.57-2.661C19.415,30.633,19.114,30.665,18.827,30.724z"/>
	<path d="M40.605,32.426c0.082-0.255-0.155-0.601-0.646-0.702c-0.287-0.059-0.588-0.091-0.901-0.091
		c-1.972,0-3.569,1.191-3.569,2.661c0,1.47,1.598,2.661,3.569,2.661c1.48,0,2.745-0.673,3.283-1.632
		c0.27-0.482,0.162-0.909,0.018-0.882c-0.085,0.016-0.173,0.025-0.263,0.025c-0.864,0-1.565-0.7-1.565-1.565
		C40.53,32.736,40.557,32.576,40.605,32.426z"/>
	<path d="M53.063,15.331c-0.082,0.005-0.181,0.009-0.297,0.009c-0.482,0-1.353-0.07-2.726-0.375
		c-0.539-0.12-1.218-0.611-1.538-1.061C44.058,7.663,37.281,3.675,29.685,3.675c-7.593,0-14.369,3.987-18.811,10.225
		c-0.32,0.45-1.005,0.914-1.551,0.993c-0.635,0.092-1.136,0.132-1.52,0.143c-0.552,0.016-1.405-0.297-1.957-0.294
		c-0.582,0.004-1.158,0.261-1.55,0.751c-0.686,0.857-0.553,2.107,0.299,2.8c0.067,0.055,0.802,0.639,2.077,1.292
		c0.492,0.252,0.737,0.846,0.552,1.366c-1.138,3.203-1.769,6.703-1.769,10.373c0,15.271,10.849,27.65,24.229,27.65
		c13.382,0,24.229-12.38,24.229-27.65c0-3.491-0.568-6.832-1.603-9.907c-0.176-0.523,0.087-1.096,0.593-1.317
		c1.565-0.684,2.48-1.365,2.555-1.422c0.874-0.665,1.048-1.91,0.391-2.789c-0.376-0.502-0.942-0.779-1.524-0.802
		C53.774,15.066,53.227,15.32,53.063,15.331z M6.446,16.561c1.114,0.128,3.393,0.026,7.795-1.314
		c5.327-1.624,8.804-1.581,10.281-1.443c0.449,0.041,0.893,0.471,0.949,0.92c0.573,4.555-3.816,3.569-9.601,4.212
		c-4.62,0.513-8.059-1.156-9.555-2.075C5.845,16.571,5.898,16.497,6.446,16.561z M12.997,30.294c0-3.777,3.445-6.84,7.695-6.84
		c4.249,0,7.693,3.062,7.693,6.84c0,3.776-3.444,6.839-7.693,6.839C16.442,37.133,12.997,34.07,12.997,30.294z M29.394,54.419
		c-3.367,0-6.097-2.313-6.097-5.166c0-2.853,2.729-5.167,6.097-5.167c3.366,0,6.096,2.314,6.096,5.167
		C35.489,52.105,32.76,54.419,29.394,54.419z M38.491,38.133c-4.25,0-7.695-3.062-7.695-6.839c0-3.777,3.445-6.84,7.695-6.84
		c4.249,0,7.693,3.062,7.693,6.84C46.185,35.07,42.74,38.133,38.491,38.133z M33.962,14.412c0.071-0.447,0.529-0.862,0.979-0.889
		c1.48-0.089,4.956-0.018,10.227,1.78c4.355,1.484,6.63,1.661,7.748,1.569c0.55-0.045,0.6,0.031,0.121,0.304
		c-1.526,0.87-5.018,2.425-9.618,1.76C37.659,18.104,33.239,18.945,33.962,14.412z"/>
</g>
</svg>
