<?xml version="1.0" encoding="iso-8859-1"?>
<!-- Generator: Adobe Illustrator 17.0.0, SVG Export Plug-In . SVG Version: 6.00 Build 0)  -->
<!DOCTYPE svg PUBLIC "-//W3C//DTD SVG 1.1//EN" "http://www.w3.org/Graphics/SVG/1.1/DTD/svg11.dtd">
<svg version="1.1" id="Capa_1" xmlns="http://www.w3.org/2000/svg" xmlns:xlink="http://www.w3.org/1999/xlink" x="0px" y="0px"
	 width="64px" height="64px" viewBox="0 0 64 64" style="enable-background:new 0 0 64 64;" xml:space="preserve">
<g>
	<path d="M58.219,31.817c0-18.332-11.528-24.293-25.75-24.293c-14.222,0-25.75,5.961-25.75,24.293
		c0,19.024,11.528,24.293,25.75,24.293C46.69,56.11,58.219,50.842,58.219,31.817z M11.011,22.26c0-0.552,0.448-1,1-1h40.916
		c0.553,0,1,0.448,1,1c0,0.552-0.447,1-1,1h-6.713c-0.552,0-0.7,0.337-0.418,0.811c0.597,1.003,0.954,2.259,0.954,3.624
		c0,3.276-2.046,5.942-4.56,5.942c-2.515,0-4.559-2.665-4.559-5.942c0-1.365,0.357-2.622,0.954-3.625
		c0.283-0.475,0.134-0.81-0.418-0.81H26.41c-0.552,0-0.687,0.324-0.388,0.789c0.663,1.031,1.062,2.359,1.062,3.806
		c0,3.276-2.047,5.941-4.561,5.941c-2.515,0-4.56-2.665-4.56-5.941c0-1.447,0.399-2.775,1.061-3.806
		c0.298-0.465,0.164-0.789-0.389-0.789h-6.626C11.459,23.26,11.011,22.812,11.011,22.26z M47.93,44.965
		c-1.246,0.84-4.085,1.895-8.93-0.727c-2.846-1.541-4.998-0.486-7.078,0.535c-1.107,0.543-2.303,1.131-3.506,1.131
		c-0.777,0-1.559-0.246-2.318-0.907c-2.003-1.742-5.271-1.608-6.898-1.407c-0.549,0.068-1.086-0.276-1.21-0.814
		c-0.124-0.538,0.215-1.071,0.762-1.146c1.87-0.258,5.966-0.484,8.659,1.859c0.855,0.744,1.674,0.451,3.631-0.51
		c2.176-1.068,5.156-2.531,8.912-0.5c3.345,1.811,5.345,1.541,6.356,1.107c0.508-0.219,1.176-0.262,1.603,0.09
		C48.338,44.027,48.388,44.656,47.93,44.965z"/>
	<path d="M39.842,30.302c-0.015-0.136-0.023-0.275-0.023-0.418c0-1.671,0.898-3.024,2.006-3.024c1.108,0,2.007,1.354,2.007,3.024
		c0,0.37-0.046,0.723-0.128,1.049c-0.135,0.535,0.029,0.703,0.395,0.289c0.725-0.82,1.192-2.096,1.192-3.527
		c0-1.826-0.762-3.387-1.848-4.079c-0.466-0.297-1.072-0.356-1.251-0.356s-0.786,0.06-1.252,0.356
		c-1.087,0.692-1.849,2.252-1.849,4.079c0,0.77,0.136,1.493,0.374,2.126C39.658,30.337,39.867,30.532,39.842,30.302z"/>
	<path d="M20.176,30.462c-0.015-0.136-0.023-0.275-0.023-0.418c0-1.671,0.898-3.024,2.006-3.024s2.006,1.354,2.006,3.024
		c0,0.37-0.046,0.723-0.128,1.049c-0.135,0.535,0.029,0.703,0.395,0.289c0.725-0.82,1.192-2.096,1.192-3.527
		c0-2.472-1.391-4.482-3.1-4.482c-1.71,0-3.1,2.011-3.1,4.482c0,0.77,0.136,1.493,0.374,2.126
		C19.992,30.497,20.201,30.692,20.176,30.462z"/>
</g>
</svg>
